<svg width="401" height="40" viewBox="0 0 401 40" fill="none" xmlns="http://www.w3.org/2000/svg">
<path d="M10.0977 20.9355C10.0977 23.0514 9.73633 24.6237 9.01367 25.6523C8.29102 26.681 7.16146 27.1953 5.625 27.1953C4.10807 27.1953 2.98503 26.694 2.25586 25.6914C1.52669 24.6823 1.14909 23.1784 1.12305 21.1797V18.7676C1.12305 16.6777 1.48438 15.125 2.20703 14.1094C2.92969 13.0938 4.0625 12.5859 5.60547 12.5859C7.13542 12.5859 8.26172 13.0775 8.98438 14.0605C9.70703 15.0371 10.0781 16.5475 10.0977 18.5918V20.9355ZM8.29102 18.4648C8.29102 16.9349 8.07617 15.8216 7.64648 15.125C7.2168 14.4219 6.53646 14.0703 5.60547 14.0703C4.68099 14.0703 4.00716 14.4186 3.58398 15.1152C3.16081 15.8118 2.94271 16.8828 2.92969 18.3281V21.2188C2.92969 22.7552 3.15104 23.8913 3.59375 24.627C4.04297 25.3561 4.72005 25.7207 5.625 25.7207C6.51693 25.7207 7.17773 25.3757 7.60742 24.6855C8.04362 23.9954 8.27148 22.9082 8.29102 21.4238V18.4648ZM18.3496 27H16.5332V14.959L12.8906 16.2969V14.6562L18.0664 12.7129H18.3496V27Z" fill="white"/>
<path d="M36.1641 29.6367H34.709V12.7812H36.1641V29.6367Z" fill="white"/>
<path d="M58.0977 20.9355C58.0977 23.0514 57.7363 24.6237 57.0137 25.6523C56.291 26.681 55.1615 27.1953 53.625 27.1953C52.1081 27.1953 50.985 26.694 50.2559 25.6914C49.5267 24.6823 49.1491 23.1784 49.123 21.1797V18.7676C49.123 16.6777 49.4844 15.125 50.207 14.1094C50.9297 13.0938 52.0625 12.5859 53.6055 12.5859C55.1354 12.5859 56.2617 13.0775 56.9844 14.0605C57.707 15.0371 58.0781 16.5475 58.0977 18.5918V20.9355ZM56.291 18.4648C56.291 16.9349 56.0762 15.8216 55.6465 15.125C55.2168 14.4219 54.5365 14.0703 53.6055 14.0703C52.681 14.0703 52.0072 14.4186 51.584 15.1152C51.1608 15.8118 50.9427 16.8828 50.9297 18.3281V21.2188C50.9297 22.7552 51.151 23.8913 51.5938 24.627C52.043 25.3561 52.7201 25.7207 53.625 25.7207C54.5169 25.7207 55.1777 25.3757 55.6074 24.6855C56.0436 23.9954 56.2715 22.9082 56.291 21.4238V18.4648ZM61.2422 19.8711L61.9648 12.7812H69.25V14.4512H63.498L63.0684 18.3281C63.765 17.918 64.556 17.7129 65.4414 17.7129C66.737 17.7129 67.7656 18.1426 68.5273 19.002C69.2891 19.8548 69.6699 21.0104 69.6699 22.4688C69.6699 23.9336 69.2728 25.0892 68.4785 25.9355C67.6908 26.7754 66.5872 27.1953 65.168 27.1953C63.9115 27.1953 62.8861 26.847 62.0918 26.1504C61.2975 25.4538 60.8451 24.4902 60.7344 23.2598H62.4434C62.554 24.0736 62.8438 24.6888 63.3125 25.1055C63.7812 25.5156 64.3997 25.7207 65.168 25.7207C66.0078 25.7207 66.6654 25.4342 67.1406 24.8613C67.6224 24.2884 67.8633 23.4974 67.8633 22.4883C67.8633 21.5378 67.6029 20.776 67.082 20.2031C66.5677 19.6237 65.8809 19.334 65.0215 19.334C64.2337 19.334 63.6152 19.5065 63.166 19.8516L62.6875 20.2422L61.2422 19.8711Z" fill="white"/>
<path d="M116 26V14H128V26H116Z" fill="#D2B183"/>
<path d="M153 26V14H165V26H153Z" fill="white"/>
<path d="M190 26V14H202V26H190Z" fill="white"/>
<path d="M227.001 26V14H239.001V26H227.001Z" fill="white"/>
<path d="M264 26V14H276V26H264Z" fill="white"/>
<path d="M395.277 15C397.098 16.6866 399.006 17.9174 401 18.6923L401 19.3077C399.006 20.1054 397.098 21.3362 395.277 23L393.76 23C394.627 21.5641 395.465 20.4701 396.275 19.7179L371 19.7179L371 18.2821L396.275 18.2821C395.465 17.5299 394.627 16.4359 393.76 15L395.277 15Z" fill="white"/>
<path d="M326.723 23.0002C324.902 21.3136 322.994 20.0829 321 19.3079V18.6926C322.994 17.8948 324.902 16.6641 326.723 15.0002H328.24C327.373 16.4361 326.535 17.5302 325.725 18.2823H351V19.7182H325.725C326.535 20.4703 327.373 21.5643 328.24 23.0002H326.723Z" fill="white"/>
</svg>
