<svg width="230" height="40" viewBox="0 0 230 40" fill="none" xmlns="http://www.w3.org/2000/svg">
<path d="M8.07812 20.1484C8.07812 21.8411 7.78906 23.099 7.21094 23.9219C6.63281 24.7448 5.72917 25.1562 4.5 25.1562C3.28646 25.1562 2.38802 24.7552 1.80469 23.9531C1.22135 23.1458 0.919271 21.9427 0.898438 20.3438V18.4141C0.898438 16.7422 1.1875 15.5 1.76562 14.6875C2.34375 13.875 3.25 13.4688 4.48438 13.4688C5.70833 13.4688 6.60938 13.862 7.1875 14.6484C7.76562 15.4297 8.0625 16.638 8.07812 18.2734V20.1484ZM6.63281 18.1719C6.63281 16.9479 6.46094 16.0573 6.11719 15.5C5.77344 14.9375 5.22917 14.6562 4.48438 14.6562C3.74479 14.6562 3.20573 14.9349 2.86719 15.4922C2.52865 16.0495 2.35417 16.9062 2.34375 18.0625V20.375C2.34375 21.6042 2.52083 22.513 2.875 23.1016C3.23438 23.6849 3.77604 23.9766 4.5 23.9766C5.21354 23.9766 5.74219 23.7005 6.08594 23.1484C6.4349 22.5964 6.61719 21.7266 6.63281 20.5391V18.1719ZM14.6797 25H13.2266V15.3672L10.3125 16.4375V15.125L14.4531 13.5703H14.6797V25Z" fill="white"/>
<path d="M25.5312 27.1094H24.3672V13.625H25.5312V27.1094Z" fill="white"/>
<path d="M40.0781 20.1484C40.0781 21.8411 39.7891 23.099 39.2109 23.9219C38.6328 24.7448 37.7292 25.1562 36.5 25.1562C35.2865 25.1562 34.388 24.7552 33.8047 23.9531C33.2214 23.1458 32.9193 21.9427 32.8984 20.3438V18.4141C32.8984 16.7422 33.1875 15.5 33.7656 14.6875C34.3438 13.875 35.25 13.4688 36.4844 13.4688C37.7083 13.4688 38.6094 13.862 39.1875 14.6484C39.7656 15.4297 40.0625 16.638 40.0781 18.2734V20.1484ZM38.6328 18.1719C38.6328 16.9479 38.4609 16.0573 38.1172 15.5C37.7734 14.9375 37.2292 14.6562 36.4844 14.6562C35.7448 14.6562 35.2057 14.9349 34.8672 15.4922C34.5286 16.0495 34.3542 16.9062 34.3438 18.0625V20.375C34.3438 21.6042 34.5208 22.513 34.875 23.1016C35.2344 23.6849 35.776 23.9766 36.5 23.9766C37.2135 23.9766 37.7422 23.7005 38.0859 23.1484C38.4349 22.5964 38.6172 21.7266 38.6328 20.5391V18.1719ZM42.5938 19.2969L43.1719 13.625H49V14.9609H44.3984L44.0547 18.0625C44.612 17.7344 45.2448 17.5703 45.9531 17.5703C46.9896 17.5703 47.8125 17.9141 48.4219 18.6016C49.0312 19.2839 49.3359 20.2083 49.3359 21.375C49.3359 22.5469 49.0182 23.4714 48.3828 24.1484C47.7526 24.8203 46.8698 25.1562 45.7344 25.1562C44.7292 25.1562 43.9089 24.8776 43.2734 24.3203C42.638 23.763 42.276 22.9922 42.1875 22.0078H43.5547C43.6432 22.6589 43.875 23.151 44.25 23.4844C44.625 23.8125 45.1198 23.9766 45.7344 23.9766C46.4062 23.9766 46.9323 23.7474 47.3125 23.2891C47.6979 22.8307 47.8906 22.1979 47.8906 21.3906C47.8906 20.6302 47.6823 20.0208 47.2656 19.5625C46.8542 19.099 46.3047 18.8672 45.6172 18.8672C44.987 18.8672 44.4922 19.0052 44.1328 19.2812L43.75 19.5938L42.5938 19.2969Z" fill="white"/>
<path d="M75 24V17H82V24H75Z" fill="#D2B183"/>
<path d="M92 24V17H99V24H92Z" fill="white"/>
<path d="M109 24V17H116V24H109Z" fill="white"/>
<path d="M126 24V17H133V24H126Z" fill="white"/>
<path d="M143 24V17H150V24H143Z" fill="white"/>
<path d="M224.659 16C226.358 17.6866 228.139 18.9174 230 19.6923L230 20.3077C228.139 21.1054 226.358 22.3362 224.659 24L223.243 24C224.052 22.5641 224.834 21.4701 225.59 20.7179L210 20.7179L210 19.282L225.59 19.2821C224.834 18.5299 224.052 17.4359 223.243 16L224.659 16Z" fill="white"/>
<path d="M180.341 24C178.642 22.3134 176.861 21.0826 175 20.3077V19.6923C176.861 18.8946 178.642 17.6638 180.341 16H181.757C180.948 17.4359 180.166 18.5299 179.41 19.2821H195V20.7179H179.41C180.166 21.4701 180.948 22.5641 181.757 24H180.341Z" fill="white"/>
</svg>
