<svg width="174" height="8" viewBox="0 0 174 8" fill="none" xmlns="http://www.w3.org/2000/svg">
<circle cx="31" cy="4" r="4" fill="#333333"/>
<circle cx="59" cy="4" r="4" fill="#999999"/>
<circle cx="87" cy="4" r="4" fill="#999999"/>
<circle cx="115" cy="4" r="4" fill="#999999"/>
<circle cx="143" cy="4" r="4" fill="#999999"/>
<path fill-rule="evenodd" clip-rule="evenodd" d="M3.83439 0.146111C4.11441 0.376116 4.15981 0.795642 3.93579 1.08315L1.66305 4L3.93579 6.91685C4.15981 7.20436 4.11441 7.62388 3.83439 7.85389C3.55437 8.08389 3.14576 8.03728 2.92174 7.74977L0 4L2.92174 0.250226C3.14576 -0.0372799 3.55437 -0.0838938 3.83439 0.146111ZM6.75629 0.146111C7.03631 0.376116 7.08171 0.795642 6.85769 1.08315L4.58495 4L6.85769 6.91685C7.08171 7.20436 7.03631 7.62388 6.75629 7.85389C6.47626 8.08389 6.06766 8.03728 5.84364 7.74977L2.9219 4L5.84364 0.250226C6.06766 -0.0372799 6.47626 -0.0838938 6.75629 0.146111Z" fill="#999999"/>
<path fill-rule="evenodd" clip-rule="evenodd" d="M167.244 0.146111C167.524 -0.0838938 167.932 -0.0372798 168.156 0.250226L171.078 4L168.156 7.74977C167.932 8.03728 167.524 8.08389 167.244 7.85389C166.964 7.62388 166.918 7.20436 167.142 6.91685L169.415 4L167.142 1.08315C166.918 0.795642 166.964 0.376116 167.244 0.146111ZM170.166 0.146111C170.446 -0.0838936 170.854 -0.0372795 171.078 0.250227L174 4L171.078 7.74977C170.854 8.03728 170.446 8.08389 170.166 7.85389C169.886 7.62388 169.84 7.20436 170.064 6.91685L172.337 4L170.064 1.08315C169.84 0.795642 169.886 0.376116 170.166 0.146111Z" fill="#999999"/>
</svg>
